<svg id="Layer_1" data-name="Layer 1" xmlns="http://www.w3.org/2000/svg" viewBox="0 0 781.53 763.64"><defs><style>.cls-1{fill:#aa7934;}</style></defs><path class="cls-1" d="M560.53,618.74c-22.18,22.18-24.43,57.26-5.09,79.85a57.43,57.43,0,0,0,84.27,3.35L767.35,574.3a48.28,48.28,0,0,0,0-68.36L639.71,378.3c-23.06-23.08-64.36-21-85.14,4.37-18.38,22.49-15.81,57,5.82,78.66l74.52,74.57a6,6,0,0,1,0,8.46Zm91.52-100-74.52-74.55C564.61,431.27,562.76,411,573.36,398a33.17,33.17,0,0,1,49.21-2.54L750.21,523.1a24.08,24.08,0,0,1,0,34.09L622.57,684.82c-13.12,13.12-36.56,12.22-48.7-2-11-12.82-9.26-33.89,3.8-47l74.38-74.37a30.29,30.29,0,0,0,0-42.79Z"/><path class="cls-1" d="M12.27,567.08a48.07,48.07,0,0,0,19.05,31.71L176.41,706.16a56.91,56.91,0,0,0,34.11,11.27,57.66,57.66,0,0,0,50.57-30.13c13.58-24.92,5.75-57.07-18.21-74.77l-85-62.91a6,6,0,0,1-1.26-8.38l64.27-86.86a57.43,57.43,0,0,0-16.92-83.54c-24.49-14.6-59.25-6.5-76.92,17.33l-105.77,143A48.12,48.12,0,0,0,12.27,567.08Zm28.46-21.5,105.82-143a37.34,37.34,0,0,1,29.35-15.16,30.23,30.23,0,0,1,15.66,4.25,32.94,32.94,0,0,1,15.69,22,33.37,33.37,0,0,1-5.87,26.26l-64.29,86.86a30.31,30.31,0,0,0,6.33,42.28L228.48,632c14.28,10.57,19.16,29.33,11.35,43.66-9.45,17.29-33.28,22.62-49,11L45.77,579.27a24,24,0,0,1-5-33.69Z"/><path class="cls-1" d="M401.58,357,298.45,689.21a57.41,57.41,0,1,0,109.65,34L511.22,391a57.44,57.44,0,0,0-37.81-71.83C443.59,309.94,410.81,327.35,401.58,357Zm86.49,26.86L385,716.05c-5.34,17.16-24.37,27.13-41.51,21.84a33.12,33.12,0,0,1-21.86-41.48L424.73,364.17a33.16,33.16,0,0,1,63.34,19.66Z"/><path class="cls-1" d="M193.94,290.91a12.12,12.12,0,0,0,12.12-12.12V230.3h48.49a12.12,12.12,0,0,0,0-24.24H206.06V157.58a12.12,12.12,0,1,0-24.24,0v48.48H133.33a12.12,12.12,0,0,0,0,24.24h48.49v48.49A12.12,12.12,0,0,0,193.94,290.91Z"/><path class="cls-1" d="M133.33,12.12V36.36H109.09a12.13,12.13,0,0,0,0,24.25h24.24V84.85a12.13,12.13,0,0,0,24.25,0V60.61h24.24a12.13,12.13,0,0,0,0-24.25H157.58V12.12a12.13,12.13,0,0,0-24.25,0Z"/><path class="cls-1" d="M48.48,97a12.12,12.12,0,0,0-12.12,12.12v24.24H12.12a12.13,12.13,0,0,0,0,24.25H36.36v24.24a12.13,12.13,0,0,0,24.25,0V157.58H84.85a12.13,12.13,0,0,0,0-24.25H60.61V109.09A12.13,12.13,0,0,0,48.48,97Z"/></svg>