<svg id="svg9724" xmlns="http://www.w3.org/2000/svg" viewBox="0 0 600 600"><defs><style>.cls-1{fill:#aa7934;}</style></defs><path id="path3428" class="cls-1" d="M300,0C221.3,0,150.1,8,97.07,21.54,70.55,28.3,48.61,36.28,31.68,46.48,16.58,55.59,3.24,67.93.53,85H0v5c0,5.16,3.64,12.94,17,22.84S52.12,133,79.69,141.62C134.84,158.85,213.32,170,300,170s165.16-11.15,220.31-28.38c27.57-8.62,49.27-18.89,62.66-28.78S600,95.16,600,90h-.13c-.68-19.68-15-33.55-31.55-43.52-16.93-10.2-38.87-18.18-65.39-24.94C449.9,8,378.7,0,300,0ZM0,149.68v84.43c.7,5.11,4.66,12.19,16.72,21.11,13.39,9.89,35.09,20.16,62.66,28.78,55.15,17.23,133.64,28.38,220.31,28.38S464.86,301.23,520,284c27.57-8.62,49.27-18.89,62.66-28.78s17-17.68,17-22.84H600v-82.7c-18.07,11.89-40.87,21.72-67.76,30.12C471.57,198.76,390.05,210,300,210S128.43,198.76,67.76,179.8C40.87,171.4,18.07,161.57,0,149.68ZM600,291.8a211.32,211.32,0,0,1-33.25,17.67,361.6,361.6,0,0,1-34.82,12.71c-60.67,19-142.18,30.2-232.24,30.2s-171.57-11.24-232.24-30.2C40.72,313.83,18,304.07,0,292.27V380c0,5.16,3.64,12.94,17,22.84S52.12,423,79.69,431.62C134.84,448.85,213.32,460,300,460s165.16-11.15,220.31-28.38c27.57-8.62,49.27-18.89,62.66-28.78s17-17.68,17-22.84ZM0,439.68V515H.53c2.71,17.07,16,29.41,31.15,38.52,16.93,10.2,38.87,18.18,65.39,24.94C150.1,592,221.3,600,300,600s149.9-8,202.93-21.54c26.52-6.76,48.46-14.74,65.39-24.94,15.1-9.11,28.44-21.45,31.15-38.52H600V439.68c-18.07,11.89-40.87,21.72-67.76,30.12C471.57,488.76,390.05,500,300,500S128.43,488.76,67.76,469.8C40.87,461.4,18.07,451.57,0,439.68Z"/></svg>