<svg id="Layer_1" data-name="Layer 1" xmlns="http://www.w3.org/2000/svg" viewBox="0 0 533.34 666.67"><defs><style>.cls-1{fill:#fff;}</style></defs><path class="cls-1" d="M288,35.18l7.78-32.41Zm43.29,29.4L307.67,88.15Zm-24-21.42,17.42-28.42ZM69.73,626.07l15.14-29.7ZM40.6,596.94,70.3,581.8Zm423,29.13-15.13-29.7Zm29.13-29.13L463,581.8Zm-24-394.85,23.57-23.57Zm21.42,24L518.6,208.7Zm8,19.27,32.41-7.78ZM40.6,69.74,70.3,84.87ZM69.73,40.6,84.87,70.3ZM332.34,325.25a33.34,33.34,0,0,0-64.68,16.17ZM350,533.34l-32.34,8.08a33.34,33.34,0,0,0,64.68,0Zm82.34-191.92a33.34,33.34,0,0,0-64.68-16.17Zm-199,225.25a33.34,33.34,0,1,0,0-66.67Zm-58.84-38.41-12.76,30.8h0Zm-36.08-36.08-30.8,12.76h0Zm94.92-125.51a33.34,33.34,0,1,0,0-66.67Zm-58.84-28.26-12.76-30.79Zm-36.08,36.08-30.8-12.76ZM333.33,39.33a33.33,33.33,0,1,0-66.66,0ZM494,266.67A33.34,33.34,0,0,0,494,200ZM393.33,600H140v66.67H393.33ZM66.67,526.67V140H0V526.67ZM140,66.67H255.82V0H140ZM466.67,277.52V526.67h66.66V277.52ZM255.82,66.67c17.89,0,21.4.21,24.35.92L295.73,2.77C283.33-.21,270.54,0,255.82,0Zm99-25.66C344.4,30.6,335.51,21.4,324.64,14.74L289.8,71.58c2.58,1.58,5.22,3.92,17.87,16.57ZM280.17,67.59a33.32,33.32,0,0,1,9.63,4l34.84-56.84a100.18,100.18,0,0,0-28.91-12ZM140,600c-19.22,0-31.63,0-41.07-.79-9.06-.74-12.41-2-14.06-2.84L54.6,655.77c12.61,6.43,25.72,8.8,38.9,9.88,12.79,1.05,28.38,1,46.5,1ZM0,526.67c0,18.12,0,33.71,1,46.5,1.08,13.18,3.45,26.29,9.88,38.9L70.3,581.8c-.84-1.65-2.1-5-2.84-14.06-.77-9.44-.79-21.85-.79-41.07Zm84.87,69.7A33.36,33.36,0,0,1,70.3,581.8L10.9,612.07a100,100,0,0,0,43.7,43.7Zm308.46,70.3c18.12,0,33.72,0,46.5-1,13.18-1.08,26.29-3.45,38.9-9.88l-30.26-59.4c-1.65.84-5,2.1-14.06,2.84-9.45.77-21.86.79-41.08.79Zm73.34-140c0,19.22,0,31.63-.8,41.07-.74,9.06-2,12.41-2.84,14.06l59.4,30.27c6.43-12.61,8.81-25.72,9.88-38.9,1.05-12.79,1-28.38,1-46.5Zm12.06,129.1a99.93,99.93,0,0,0,43.7-43.7L463,581.8a33.29,33.29,0,0,1-14.56,14.57Zm-33.54-430.1c12.65,12.65,15,15.28,16.56,17.86L518.6,208.7c-6.67-10.87-15.86-19.77-26.27-30.18Zm88.14,51.85c0-14.72.22-27.51-2.76-39.91l-64.82,15.56c.7,2.94.92,6.46.92,24.35Zm-71.58-34a33.52,33.52,0,0,1,4,9.64l64.82-15.56a100.07,100.07,0,0,0-12-28.91ZM66.67,140c0-19.21,0-31.62.79-41.07.74-9.05,2-12.41,2.84-14.06L10.9,54.6C4.47,67.22,2.1,80.32,1,93.5,0,106.29,0,121.89,0,140ZM140,0c-18.12,0-33.71,0-46.5,1C80.32,2.1,67.21,4.48,54.6,10.9L84.87,70.3c1.65-.84,5-2.09,14.06-2.83,9.44-.77,21.85-.8,41.07-.8ZM70.3,84.87A33.41,33.41,0,0,1,84.87,70.3L54.6,10.9A100,100,0,0,0,10.9,54.6ZM267.66,341.42l50,200,64.68-16.17-50-200Zm114.68,200,50-200-64.68-16.17-50,200ZM233.33,500c-16,0-26.31,0-34.2-.55-7.6-.52-10.5-1.41-11.89-2l-25.51,61.59c10.87,4.5,21.86,6.15,32.86,6.9,10.69.73,23.67.71,38.74.71ZM100,433.34c0,15.07,0,28.05.71,38.74.75,11,2.4,22,6.9,32.86l61.59-25.51c-.57-1.39-1.46-4.29-2-11.89-.54-7.89-.55-18.22-.55-34.2Zm87.24,64.13a33.43,33.43,0,0,1-18-18l-61.59,25.51a100,100,0,0,0,54.12,54.12ZM233.33,300c-15.07,0-28.05,0-38.74.71-11,.76-22,2.41-32.86,6.91l25.51,61.59c1.39-.58,4.29-1.46,11.89-2,7.89-.54,18.22-.56,34.2-.56ZM166.67,433.34c0-16,0-26.31.55-34.21.52-7.6,1.41-10.5,2-11.88l-61.59-25.52c-4.5,10.87-6.15,21.87-6.9,32.86-.73,10.7-.71,23.67-.71,38.75Zm-4.94-125.72a100,100,0,0,0-54.12,54.11l61.59,25.52a33.36,33.36,0,0,1,18-18ZM266.67,39.33V200h66.66V39.33Zm66.66,227.34H494V200H333.33ZM266.67,200a66.66,66.66,0,0,0,66.66,66.67V200H266.67Zm41-111.85L445.19,225.67l47.14-47.15L354.81,41Z"/></svg>