<svg id="Layer_1" data-name="Layer 1" xmlns="http://www.w3.org/2000/svg" viewBox="0 0 800 752.94"><defs><style>.cls-1{fill:#aa7934;}</style></defs><path class="cls-1" d="M254.87,134.94a58.83,58.83,0,1,0,58.82,58.82A58.9,58.9,0,0,0,254.87,134.94Zm0,94.12a35.3,35.3,0,1,1,35.29-35.3A35.34,35.34,0,0,1,254.87,229.06Z"/><path class="cls-1" d="M505.27,217.55a58.83,58.83,0,1,0-58.82,58.83A58.9,58.9,0,0,0,505.27,217.55Zm-94.12,0a35.3,35.3,0,1,1,35.3,35.3A35.34,35.34,0,0,1,411.15,217.55Z"/><path class="cls-1" d="M538.05,319.84a58.82,58.82,0,1,0,58.82,58.82A58.91,58.91,0,0,0,538.05,319.84Zm0,94.11a35.3,35.3,0,1,1,35.29-35.29A35.34,35.34,0,0,1,538.05,414Z"/><path class="cls-1" d="M479.69,495.22a70.59,70.59,0,1,0,70.59,70.59A70.67,70.67,0,0,0,479.69,495.22Zm0,117.65a47.06,47.06,0,1,1,47.06-47.06A47.1,47.1,0,0,1,479.69,612.87Z"/><path class="cls-1" d="M400,0C179.44,0,0,181.86,0,405.36c0,110,42.75,214.52,117.29,286.78,22.33,21.65,44.78,33.08,65,33.08,18.3,0,33.6-9.46,42-26,13.08-25.83,6.45-63.08-16.89-94.89-11.37-15.46-14.45-33.86-7.86-46.85,4.66-9.18,13.67-14.24,25.36-14.24,13.67,0,51.49,7.63,107,78.17,85.55,108.66,165.41,131.48,217.36,131.48a175.42,175.42,0,0,0,118.29-46.16C751.69,630,800,520.09,800,405.36,800,181.86,620.56,0,400,0ZM651.65,689.36a151.77,151.77,0,0,1-102.43,40c-46.73,0-119.15-21.25-198.89-122.52-44.26-56.21-88.82-87.15-125.53-87.15-20.73,0-37.62,9.88-46.35,27.15-10.71,21.13-6.92,48.5,9.88,71.39,20.63,28.12,22.35,55.6,14.87,70.36-3,6-9.08,13.05-20.94,13.05-13.74,0-31-9.38-48.57-26.44C63.67,607.39,23.53,509,23.53,405.36,23.53,194.82,192.42,23.53,400,23.53S776.47,194.82,776.47,405.36C776.47,513.51,731,617,651.65,689.36Z"/></svg>