<svg id="Layer_1" data-name="Layer 1" xmlns="http://www.w3.org/2000/svg" viewBox="0 0 650 550"><defs><style>.cls-1{fill:#aa7934;}</style></defs><path class="cls-1" d="M375,216.67H275a58.68,58.68,0,0,1-58.33-58.34v-100A58.66,58.66,0,0,1,275,0H375a58.66,58.66,0,0,1,58.33,58.33v100A58.68,58.68,0,0,1,375,216.67ZM275,50a8.33,8.33,0,0,0-8.33,8.33v100a8.33,8.33,0,0,0,8.33,8.34H375a8.33,8.33,0,0,0,8.33-8.34v-100A8.33,8.33,0,0,0,375,50Z"/><path class="cls-1" d="M125,550H58.33A58.66,58.66,0,0,1,0,491.67V425a58.66,58.66,0,0,1,58.33-58.33H125A58.66,58.66,0,0,1,183.33,425v66.67A58.66,58.66,0,0,1,125,550ZM58.33,416.67A8.33,8.33,0,0,0,50,425v66.67A8.33,8.33,0,0,0,58.33,500H125a8.33,8.33,0,0,0,8.33-8.33V425a8.33,8.33,0,0,0-8.33-8.33Z"/><path class="cls-1" d="M358.33,550H291.67a58.68,58.68,0,0,1-58.34-58.33V425a58.68,58.68,0,0,1,58.34-58.33h66.66A58.68,58.68,0,0,1,416.67,425v66.67A58.68,58.68,0,0,1,358.33,550ZM291.67,416.67a8.33,8.33,0,0,0-8.34,8.33v66.67a8.33,8.33,0,0,0,8.34,8.33h66.66a8.33,8.33,0,0,0,8.34-8.33V425a8.33,8.33,0,0,0-8.34-8.33Z"/><path class="cls-1" d="M591.67,550H525a58.66,58.66,0,0,1-58.33-58.33V425A58.66,58.66,0,0,1,525,366.67h66.67A58.66,58.66,0,0,1,650,425v66.67A58.66,58.66,0,0,1,591.67,550ZM525,416.67a8.33,8.33,0,0,0-8.33,8.33v66.67A8.33,8.33,0,0,0,525,500h66.67a8.33,8.33,0,0,0,8.33-8.33V425a8.33,8.33,0,0,0-8.33-8.33Z"/><path class="cls-1" d="M558.33,416.67a25.34,25.34,0,0,1-25-25V325a8.33,8.33,0,0,0-8.33-8.33H125a8.33,8.33,0,0,0-8.33,8.33v66.67a25,25,0,0,1-50,0V325A58.66,58.66,0,0,1,125,266.67H525A58.66,58.66,0,0,1,583.33,325v66.67a25.32,25.32,0,0,1-25,25Z"/><path class="cls-1" d="M325,416.67a25.34,25.34,0,0,1-25-25v-200a25,25,0,1,1,50,0v200a25.34,25.34,0,0,1-25,25Z"/></svg>