<svg id="Layer_1" data-name="Layer 1" xmlns="http://www.w3.org/2000/svg" viewBox="0 0 737.66 780.35"><defs><style>.cls-1{fill:#aa7934;}</style></defs><g id="Layer_1-2" data-name="Layer_1"><path class="cls-1" d="M133.82,474.93V19.5A19.5,19.5,0,0,1,153.32,0H586.8c83,0,150.86,67.84,150.86,150.86V627a19.5,19.5,0,0,1-19.51,19.51H305.42c-9.7,76.4-75,133.82-152.1,133.82A153.33,153.33,0,0,1,0,627c0-77.13,57.43-142.4,133.82-152.09ZM78,658.47c-18.14-18.15,9.45-45.73,27.59-27.59l26.55,26.55,66.5-102.17c13.91-21.42,46.52-.23,32.61,21.19l-78.78,121A19.51,19.51,0,0,1,121.47,702L78,658.47Zm227.47-51H698.64V150.86C698.64,89.39,648.27,39,586.8,39h-414V474.93A153.41,153.41,0,0,1,305.42,607.52Zm-152.1-94.8A114.31,114.31,0,1,0,267.63,627,114.3,114.3,0,0,0,153.32,512.72ZM558.05,272.55h87a19.51,19.51,0,0,1,19.5,19.52V497.3a19.51,19.51,0,0,1-19.5,19.52h-87a19.52,19.52,0,0,1-19.51-19.52V292.07a19.52,19.52,0,0,1,19.51-19.52Zm67.51,39h-48V477.79h48V311.57ZM464.47,157.23c-25.66,0-25.66-39,0-39H612.24c25.66,0,25.66,39,0,39Zm0,65.68c-25.66,0-25.66-39,0-39H612.24c25.66,0,25.66,39,0,39ZM223.11,429.79c-25.67,0-25.67-39,0-39H492.38c25.66,0,25.66,39,0,39Zm0-55.82c-25.67,0-25.67-39,0-39H492.38c25.66,0,25.66,39,0,39Zm0-55.83c-25.67,0-25.67-39,0-39H416.85c25.66,0,25.66,39,0,39Zm4.1-239.33H371.7a19.5,19.5,0,0,1,19.5,19.51V242.81a19.51,19.51,0,0,1-19.5,19.51H227.21a19.51,19.51,0,0,1-19.5-19.51V98.32a19.5,19.5,0,0,1,19.5-19.51Zm125,39H246.72V223.31H352.19Z"/></g></svg>