<svg id="Layer_1" data-name="Layer 1" xmlns="http://www.w3.org/2000/svg" xmlns:xlink="http://www.w3.org/1999/xlink" viewBox="0 0 787.21 571.88"><defs><style>.cls-1{fill:none;}.cls-2{fill:#aa7934;}.cls-3{clip-path:url(#clip-path);}.cls-4{clip-path:url(#clip-path-2);}</style><clipPath id="clip-path"><rect class="cls-1" width="787.2" height="571.88"/></clipPath><clipPath id="clip-path-2"><rect class="cls-1" y="112.5" width="787.2" height="25"/></clipPath></defs><path class="cls-2" d="M113.91,79.55H67.29a11.94,11.94,0,0,1,0-23.87h46.49a11.94,11.94,0,0,1,.13,23.87Z"/><path class="cls-2" d="M197.3,79.55H150.8a11.94,11.94,0,0,1,0-23.87h46.5a11.94,11.94,0,0,1,0,23.87Z"/><path class="cls-2" d="M280.58,79.55h-46.5a11.94,11.94,0,0,1,0-23.87h46.5a11.94,11.94,0,0,1,0,23.87Z"/><g class="cls-3"><path class="cls-2" d="M732.11,571.17H55.23A55.19,55.19,0,0,1,0,516.07V55.93A55.22,55.22,0,0,1,55.23.7H732.11a55.2,55.2,0,0,1,55.1,55.23V516.07A55.17,55.17,0,0,1,732.11,571.17ZM55.23,24.56A31.34,31.34,0,0,0,23.87,55.93V516.07a31.31,31.31,0,0,0,31.36,31.24H732.11a31.28,31.28,0,0,0,31.24-31.24V55.93a31.32,31.32,0,0,0-31.24-31.37Z"/></g><g class="cls-4"><path class="cls-2" d="M775.28,137.36H11.94a11.94,11.94,0,0,1,0-23.87H775.28a11.94,11.94,0,0,1,0,23.87Z"/></g><path class="cls-2" d="M674.91,509.8H567.16a11.87,11.87,0,0,1-11.93-11.94V368A11.87,11.87,0,0,1,567.16,356H674.91A11.87,11.87,0,0,1,686.84,368V497.86A12,12,0,0,1,674.91,509.8Zm-95.82-23.87H663v-106H579.09Z"/><path class="cls-2" d="M462.11,509.8H354.36a11.87,11.87,0,0,1-11.93-11.94V368A11.87,11.87,0,0,1,354.36,356H462.11A11.87,11.87,0,0,1,474,368V497.86A11.94,11.94,0,0,1,462.11,509.8ZM366.3,485.93h83.88v-106H366.3Z"/><path class="cls-2" d="M674.91,328H567.16a11.87,11.87,0,0,1-11.93-11.93V186.3a11.87,11.87,0,0,1,11.93-11.93H674.91a11.87,11.87,0,0,1,11.93,11.93V316.19A11.92,11.92,0,0,1,674.91,328Zm-95.82-23.86H663v-106H579.09Z"/><path class="cls-2" d="M462.11,328H354.36a11.87,11.87,0,0,1-11.93-11.93V186.3a11.87,11.87,0,0,1,11.93-11.93H462.11A11.87,11.87,0,0,1,474,186.3V316.19A11.83,11.83,0,0,1,462.11,328ZM366.3,304.14h83.88v-106H366.3Z"/><path class="cls-2" d="M194.34,255.44H147.85a11.94,11.94,0,1,1,0-23.87h46.49a11.94,11.94,0,1,1,0,23.87Z"/><path class="cls-2" d="M194.34,297.25H147.85a11.93,11.93,0,1,1,0-23.86h46.49a11.93,11.93,0,1,1,0,23.86Z"/><path class="cls-2" d="M194.34,339H147.85a11.93,11.93,0,1,1,0-23.86h46.49a11.93,11.93,0,1,1,0,23.86Z"/><path class="cls-2" d="M230,500.7H112.3a11.87,11.87,0,0,1-11.93-11.93V195.29a11.87,11.87,0,0,1,11.93-11.94H229.89a11.88,11.88,0,0,1,11.94,11.94V488.9A11.75,11.75,0,0,1,230,500.71ZM124.24,477h93.84V207.23H124.24Z"/></svg>